<svg width="462" height="488" xmlns="http://www.w3.org/2000/svg" xmlns:xlink="http://www.w3.org/1999/xlink"><defs><path d="M196.571 402.005C-2.597 309.129-5.72 134.144 2.532 61.781a275.02 275.02 0 0 0 39.117 2.893A210.507 210.507 0 0 0 196.683.853a209.92 209.92 0 0 0 154.803 63.804 274.893 274.893 0 0 0 39.108-2.893c8.268 72.389 5.145 247.365-194.023 340.241z" id="a"/></defs><g fill="none" fill-rule="evenodd"><path d="M230.409 487.467C498.535 372.557 464.06 126.976 454.204 77.952a8.481 8.481 0 0 0-10.411-6.511C318.883 100.625 257.281 32.23 237.79 4.028a8.533 8.533 0 0 0-14.14 0c-19.558 28.203-81.365 96.623-206.302 67.413a8.483 8.483 0 0 0-10.411 6.511c-9.856 49.024-44.331 294.605 223.795 409.515h-.323z" fill="#46B29D" fill-rule="nonzero"/><g transform="translate(34 48)"><mask id="b" fill="#fff"><use xlink:href="#a"/></mask><use fill="#08A4BD" fill-rule="nonzero" xlink:href="#a"/><g mask="url(#b)"><g transform="translate(50 126)" fill-rule="nonzero"><ellipse fill="#FCFCFC" cx="166" cy="66.5" rx="67" ry="66.5"/><path d="M132.14 124a66.879 66.879 0 0 1-13.485-10.356c-26.207-25.997-26.207-68.15 0-94.146 26.206-25.997 68.7-25.997 94.905 0A66.477 66.477 0 0 1 224 32.876c-25.716-14.996-59.344-11.543-81.42 10.356C120.505 65.13 117.024 98.489 132.14 124z" fill="#E0E0E0"/><path d="M166 133.723L51.437 232a129.5 129.5 0 0 1-36.415-30.053A128.901 128.901 0 0 1 1 181.567L99.28 67 166 133.723z" fill="#01172F"/><path d="M217.852 117.874a7.346 7.346 0 0 1-5.185 2.126 7.344 7.344 0 0 1-5.185-2.126L114.148 25.4a7.219 7.219 0 0 1 0-10.275A7.347 7.347 0 0 1 119.333 13c1.875 0 3.753.707 5.185 2.126l93.334 92.473a7.217 7.217 0 0 1 0 10.275z" fill="#00050A"/><path d="M217.863 118.865a7.274 7.274 0 0 1-5.16 2.135 7.272 7.272 0 0 1-5.159-2.135l-75.407-75.41a7.298 7.298 0 0 1 0-10.32 7.275 7.275 0 0 1 5.16-2.135c1.865 0 3.734.71 5.158 2.135l75.408 75.41a7.297 7.297 0 0 1 0 10.32z" fill="#01172F"/><g transform="translate(0 2)"><path d="M122.547 88.71v.004L14.52 199.71A128.71 128.71 0 0 1 .5 179.36l98.26-114.402 23.786 23.751z" fill="#00050A"/><ellipse fill="#01172F" cx="150.458" cy="26.342" rx="5.512" ry="5.506"/><ellipse fill="#01172F" cx="163.887" cy="39.749" rx="5.512" ry="5.506"/><ellipse fill="#01172F" cx="177.31" cy="53.162" rx="5.512" ry="5.506"/><ellipse fill="#01172F" cx="190.739" cy="66.574" rx="5.512" ry="5.506"/><ellipse fill="#01172F" cx="204.163" cy="79.981" rx="5.512" ry="5.506"/><ellipse fill="#01172F" transform="rotate(-45 216.639 92.444)" cx="216.639" cy="92.444" rx="5.512" ry="4.164"/><ellipse fill="#01172F" transform="rotate(-45 137.727 13.627)" cx="137.727" cy="13.627" rx="5.512" ry="4.516"/><ellipse fill="#01172F" cx="189.311" cy="14.356" rx="5.512" ry="5.506"/><ellipse fill="#01172F" cx="202.739" cy="27.768" rx="5.512" ry="5.506"/><ellipse fill="#01172F" cx="216.163" cy="41.175" rx="5.512" ry="5.506"/><ellipse fill="#01172F" transform="rotate(-45 157.453 7.467)" cx="157.453" cy="7.467" rx="5.512" ry="4.396"/><ellipse fill="#01172F" cx="170.095" cy="20.088" rx="5.512" ry="5.506"/><ellipse fill="#01172F" cx="183.524" cy="33.501" rx="5.512" ry="5.506"/><ellipse fill="#01172F" cx="196.953" cy="46.908" rx="5.512" ry="5.506"/><ellipse fill="#01172F" cx="210.376" cy="60.32" rx="5.512" ry="5.506"/><ellipse fill="#01172F" transform="rotate(-45 222.946 72.878)" cx="222.946" cy="72.878" rx="5.512" ry="4.299"/><ellipse fill="#01172F" cx="180.014" cy="103.106" rx="5.512" ry="5.506"/><ellipse fill="#01172F" cx="166.591" cy="89.699" rx="5.512" ry="5.506"/><ellipse fill="#01172F" cx="153.162" cy="76.286" rx="5.512" ry="5.506"/><ellipse fill="#01172F" cx="139.733" cy="62.874" rx="5.512" ry="5.506"/><ellipse fill="#01172F" cx="126.309" cy="49.466" rx="5.512" ry="5.506"/><ellipse fill="#01172F" transform="rotate(135 113.834 37.004)" cx="113.834" cy="37.004" rx="5.512" ry="4.164"/><ellipse fill="#01172F" transform="rotate(135 192.747 115.817)" cx="192.747" cy="115.817" rx="5.512" ry="4.516"/><ellipse fill="#01172F" transform="rotate(135 173.023 121.985)" cx="173.023" cy="121.985" rx="5.512" ry="4.396"/><ellipse fill="#01172F" cx="160.377" cy="109.36" rx="5.512" ry="5.506"/><ellipse fill="#01172F" cx="146.948" cy="95.947" rx="5.512" ry="5.506"/><ellipse fill="#01172F" cx="133.525" cy="82.535" rx="5.512" ry="5.506"/><ellipse fill="#01172F" cx="120.096" cy="69.127" rx="5.512" ry="5.506"/><ellipse fill="#01172F" transform="rotate(135 107.525 56.567)" cx="107.525" cy="56.567" rx="5.512" ry="4.299"/><path d="M81.832 148.491a9.702 9.702 0 0 1 0-13.731l23.655-23.626c3.796-3.792 9.951-3.792 13.748 0a9.702 9.702 0 0 1 0 13.731L95.58 148.491c-3.796 3.793-9.95 3.793-13.748 0z" fill="#343B5E"/></g><path d="M115.792 123.05l-23.743 23.742a4.132 4.132 0 0 1-5.84 0 4.132 4.132 0 0 1 0-5.84l23.742-23.744a4.132 4.132 0 0 1 5.84 0 4.133 4.133 0 0 1 0 5.841z" fill="#FCFCFC"/><path d="M115.779 123.124L104.903 134 99 128.097l10.876-10.876a4.176 4.176 0 0 1 5.902 0 4.176 4.176 0 0 1 0 5.903z" fill="#08A4BD"/></g></g></g><g fill="#65DDB9" fill-rule="nonzero"><path d="M230.563 458.547a8.529 8.529 0 0 1-3.593-.794 431.491 431.491 0 0 1-56.508-31.445 8.535 8.535 0 0 1 .781-14.923 8.533 8.533 0 0 1 8.648.707 413.026 413.026 0 0 0 50.671 28.484C415.42 352.478 424.269 192.785 417.298 119.33a278.59 278.59 0 0 1-31.812 1.877 8.533 8.533 0 0 1 0-17.066 266.846 266.846 0 0 0 38.135-2.842 8.536 8.536 0 0 1 9.694 7.424c8.798 72.96 6.98 253.013-199.142 349.013a8.458 8.458 0 0 1-3.61.811zM114.441 376.533a8.531 8.531 0 0 1-6.263-2.731A305.23 305.23 0 0 1 32.871 225.22a375.21 375.21 0 0 1-4.864-116.42 8.53 8.53 0 0 1 9.694-7.475 266.714 266.714 0 0 0 37.948 2.816A201.206 201.206 0 0 0 224.436 43.17a8.789 8.789 0 0 1 12.271 0 195.67 195.67 0 0 0 81.92 50.978 8.532 8.532 0 0 1 3.257 14.521 8.533 8.533 0 0 1-8.446 1.735 211.991 211.991 0 0 1-82.876-49.271 218.242 218.242 0 0 1-154.897 60.075 278.534 278.534 0 0 1-31.573-1.852 357.295 357.295 0 0 0 5.513 102.443 288.354 288.354 0 0 0 71.1 140.399 8.534 8.534 0 0 1-6.264 14.335z"/></g></g></svg>