<?xml version="1.0" encoding="UTF-8"?>
<svg width="462px" height="488px" viewBox="0 0 462 488" version="1.1" xmlns="http://www.w3.org/2000/svg" xmlns:xlink="http://www.w3.org/1999/xlink">
    <!-- Generator: Sketch 51.1 (57501) - http://www.bohemiancoding.com/sketch -->
    <title>Group 2</title>
    <desc>Created with Sketch.</desc>
    <defs>
        <path d="M196.571,402.005 C-2.597,309.129 -5.72,134.144 2.532,61.781 C15.485,63.675 28.558,64.642 41.649,64.674 C99.935,65.785 156.071,42.676 196.683,0.853 C237.202,42.67 293.269,65.779 351.486,64.657 C364.574,64.625 377.644,63.658 390.594,61.764 C398.862,134.153 395.739,309.129 196.571,402.005 Z" id="path-1"></path>
    </defs>
    <g id="Page-1" stroke="none" stroke-width="1" fill="none" fill-rule="evenodd">
        <g id="Group-2">
            <g id="shield"></g>
            <path d="M230.409,487.467 C498.535,372.557 464.06,126.976 454.204,77.952 C453.737,75.679 452.36,73.697 450.393,72.467 C448.426,71.237 446.041,70.866 443.793,71.441 C318.883,100.625 257.281,32.23 237.79,4.028 C236.203,1.68 233.554,0.273 230.72,0.273 C227.886,0.273 225.237,1.68 223.65,4.028 C204.092,32.231 142.285,100.651 17.348,71.441 C15.1,70.866 12.715,71.237 10.748,72.467 C8.781,73.697 7.404,75.679 6.937,77.952 C-2.919,126.976 -37.394,372.557 230.732,487.467 L230.409,487.467 Z" id="Shape" fill="#46B29D" fill-rule="nonzero"></path>
            <g id="microphone" transform="translate(34.000000, 48.000000)">
                <mask id="mask-2" fill="white">
                    <use xlink:href="#path-1"></use>
                </mask>
                <use id="Mask" fill="#08A4BD" fill-rule="nonzero" xlink:href="#path-1"></use>
                <g mask="url(#mask-2)">
                    <g transform="translate(50.000000, 126.000000)">
                        <ellipse id="Oval" fill="#FCFCFC" fill-rule="nonzero" cx="166" cy="66.5" rx="67" ry="66.5"></ellipse>
                        <path d="M132.140846,124 C127.323966,121.199335 122.786165,117.742297 118.654801,113.643984 C92.4483996,87.6472337 92.4483996,45.4943134 118.654801,19.4975629 C144.861203,-6.49918763 187.354066,-6.49918763 213.560468,19.4975629 C217.691831,23.5958753 221.176749,28.0973747 224,32.8757191 C198.28376,17.8797815 164.655924,21.3332968 142.580378,43.2317349 C120.504832,65.130173 117.023973,98.4894899 132.140846,124 Z" id="Shape" fill="#E0E0E0" fill-rule="nonzero"></path>
                        <path d="M166,133.722651 L51.4367341,232 C37.5204211,224.282605 25.1745805,214.060852 15.0217511,201.946706 C9.72411822,195.641922 5.02178167,188.81548 1,181.566769 L99.2798932,67 L166,133.722651 Z" id="Shape" fill="#01172F" fill-rule="nonzero"></path>
                        <path d="M217.851888,117.873909 C216.420109,119.292476 214.541693,120 212.666829,120 C210.791966,120 208.913549,119.292979 207.48177,117.873909 L114.147668,25.4010236 C111.284111,22.563889 111.284111,17.9632254 114.147668,15.1260909 C115.579447,13.7075236 117.458371,13 119.332727,13 C121.20759,13 123.086007,13.7070208 124.517785,15.1260909 L217.852395,107.599479 C220.715953,110.436614 220.715953,115.036775 217.851888,117.873909 Z" id="Shape" fill="#00050A" fill-rule="nonzero"></path>
                        <path d="M217.862641,118.864706 C216.437987,120.289414 214.568919,121 212.703385,121 C210.837852,121 208.968783,120.289919 207.544129,118.864706 L132.13698,43.454701 C129.287673,40.605286 129.287673,35.9847086 132.13698,33.1352936 C133.561634,31.7105861 135.431208,31 137.296236,31 C139.16177,31 141.030838,31.7100811 142.455492,33.1352936 L217.862641,108.545299 C220.712453,111.395219 220.712453,116.015291 217.862641,118.864706 Z" id="Shape" fill="#01172F" fill-rule="nonzero"></path>
                        <g id="Group" stroke-width="1" fill="none" fill-rule="evenodd" transform="translate(0.000000, 2.000000)">
                            <path d="M122.546623,88.7093199 L122.546623,88.7143577 L14.5207675,199.710327 C9.22421053,193.41461 4.52282895,186.597985 0.501864035,179.359698 L98.7617982,64.9576826 L122.546623,88.7093199 Z" id="Shape" fill="#00050A" fill-rule="nonzero"></path>
                            <ellipse id="Oval" fill="#01172F" fill-rule="nonzero" cx="150.458333" cy="26.3415617" rx="5.51243421" ry="5.50579345"></ellipse>
                            <ellipse id="Oval" fill="#01172F" fill-rule="nonzero" cx="163.887105" cy="39.7491184" rx="5.51243421" ry="5.50579345"></ellipse>
                            <ellipse id="Oval" fill="#01172F" fill-rule="nonzero" cx="177.310329" cy="53.1617128" rx="5.51243421" ry="5.50579345"></ellipse>
                            <ellipse id="Oval" fill="#01172F" fill-rule="nonzero" cx="190.739101" cy="66.5743073" rx="5.51243421" ry="5.50579345"></ellipse>
                            <ellipse id="Oval" fill="#01172F" fill-rule="nonzero" cx="204.162829" cy="79.9813602" rx="5.51243421" ry="5.50579345"></ellipse>
                            <ellipse id="Oval" fill="#01172F" fill-rule="nonzero" transform="translate(216.639017, 92.443671) rotate(-45.000000) translate(-216.639017, -92.443671) " cx="216.639017" cy="92.4436707" rx="5.51187696" ry="4.1641918"></ellipse>
                            <ellipse id="Oval" fill="#01172F" fill-rule="nonzero" transform="translate(137.727273, 13.627460) rotate(-45.000000) translate(-137.727273, -13.627460) " cx="137.727273" cy="13.6274598" rx="5.51187696" ry="4.51632948"></ellipse>
                            <ellipse id="Oval" fill="#01172F" fill-rule="nonzero" cx="189.31068" cy="14.3556675" rx="5.51243421" ry="5.50579345"></ellipse>
                            <ellipse id="Oval" fill="#01172F" fill-rule="nonzero" cx="202.739452" cy="27.768262" rx="5.51243421" ry="5.50579345"></ellipse>
                            <ellipse id="Oval" fill="#01172F" fill-rule="nonzero" cx="216.16318" cy="41.1753149" rx="5.51243421" ry="5.50579345"></ellipse>
                            <ellipse id="Oval" fill="#01172F" fill-rule="nonzero" transform="translate(157.452920, 7.466859) rotate(-45.000000) translate(-157.452920, -7.466859) " cx="157.45292" cy="7.46685894" rx="5.51187696" ry="4.39643139"></ellipse>
                            <ellipse id="Oval" fill="#01172F" fill-rule="nonzero" cx="170.095088" cy="20.0881612" rx="5.51243421" ry="5.50579345"></ellipse>
                            <ellipse id="Oval" fill="#01172F" fill-rule="nonzero" cx="183.52386" cy="33.5007557" rx="5.51243421" ry="5.50579345"></ellipse>
                            <ellipse id="Oval" fill="#01172F" fill-rule="nonzero" cx="196.952632" cy="46.9078086" rx="5.51243421" ry="5.50579345"></ellipse>
                            <ellipse id="Oval" fill="#01172F" fill-rule="nonzero" cx="210.37636" cy="60.320403" rx="5.51243421" ry="5.50579345"></ellipse>
                            <ellipse id="Oval" fill="#01172F" fill-rule="nonzero" transform="translate(222.945874, 72.878216) rotate(-45.000000) translate(-222.945874, -72.878216) " cx="222.945874" cy="72.8782157" rx="5.51187696" ry="4.2992031"></ellipse>
                            <ellipse id="Oval" fill="#01172F" fill-rule="nonzero" cx="180.013838" cy="103.105793" rx="5.51243421" ry="5.50579345"></ellipse>
                            <ellipse id="Oval" fill="#01172F" fill-rule="nonzero" cx="166.590614" cy="89.6987406" rx="5.51243421" ry="5.50579345"></ellipse>
                            <ellipse id="Oval" fill="#01172F" fill-rule="nonzero" cx="153.161842" cy="76.2861461" rx="5.51243421" ry="5.50579345"></ellipse>
                            <ellipse id="Oval" fill="#01172F" fill-rule="nonzero" cx="139.73307" cy="62.8735516" rx="5.51243421" ry="5.50579345"></ellipse>
                            <ellipse id="Oval" fill="#01172F" fill-rule="nonzero" cx="126.309342" cy="49.465995" rx="5.51243421" ry="5.50579345"></ellipse>
                            <ellipse id="Oval" fill="#01172F" fill-rule="nonzero" transform="translate(113.833517, 37.004047) rotate(135.000000) translate(-113.833517, -37.004047) " cx="113.833517" cy="37.0040469" rx="5.51187696" ry="4.1641918"></ellipse>
                            <ellipse id="Oval" fill="#01172F" fill-rule="nonzero" transform="translate(192.746936, 115.817328) rotate(135.000000) translate(-192.746936, -115.817328) " cx="192.746936" cy="115.817328" rx="5.51187696" ry="4.51632948"></ellipse>
                            <ellipse id="Oval" fill="#01172F" fill-rule="nonzero" transform="translate(173.023380, 121.985058) rotate(135.000000) translate(-173.023380, -121.985058) " cx="173.02338" cy="121.985058" rx="5.51187696" ry="4.39643139"></ellipse>
                            <ellipse id="Oval" fill="#01172F" fill-rule="nonzero" cx="160.377083" cy="109.359698" rx="5.51243421" ry="5.50579345"></ellipse>
                            <ellipse id="Oval" fill="#01172F" fill-rule="nonzero" cx="146.948311" cy="95.9471033" rx="5.51243421" ry="5.50579345"></ellipse>
                            <ellipse id="Oval" fill="#01172F" fill-rule="nonzero" cx="133.524583" cy="82.5345088" rx="5.51243421" ry="5.50579345"></ellipse>
                            <ellipse id="Oval" fill="#01172F" fill-rule="nonzero" cx="120.095811" cy="69.1269521" rx="5.51243421" ry="5.50579345"></ellipse>
                            <ellipse id="Oval" fill="#01172F" fill-rule="nonzero" transform="translate(107.524599, 56.567314) rotate(135.000000) translate(-107.524599, -56.567314) " cx="107.524599" cy="56.5673144" rx="5.51187696" ry="4.2992031"></ellipse>
                            <path d="M81.8320833,148.491184 C78.0360746,144.699748 78.0360746,138.551637 81.8320833,134.759698 L105.486776,111.133501 C109.282785,107.342065 115.438311,107.342065 119.234825,111.133501 C123.030833,114.924937 123.030833,121.073048 119.234825,124.864987 L95.5801316,148.491184 C91.7841228,152.283627 85.6291009,152.283627 81.8320833,148.491184 Z" id="Shape" fill="#343B5E" fill-rule="nonzero"></path>
                        </g>
                        <path d="M115.791505,123.049365 L92.048859,146.791505 C90.4375321,148.402832 87.819822,148.402832 86.2084952,146.791505 C84.5971683,145.180178 84.5971683,142.562468 86.2084952,140.951141 L109.951141,117.208495 C111.562468,115.597168 114.180178,115.597168 115.791505,117.208495 C117.402832,118.820328 117.402832,121.438038 115.791505,123.049365 Z" id="Shape" fill="#FCFCFC" fill-rule="nonzero"></path>
                        <path d="M115.778691,123.12415 L104.903111,134 L99,128.097254 L109.87558,117.221403 C111.504077,115.592866 114.149682,115.592866 115.778179,117.221403 C117.407188,118.849941 117.407188,121.495612 115.778691,123.12415 Z" id="Shape" fill="#08A4BD" fill-rule="nonzero"></path>
                    </g>
                </g>
            </g>
            <g id="Group" transform="translate(25.000000, 40.000000)" fill="#65DDB9" fill-rule="nonzero">
                <path d="M205.563,418.547 C204.322,418.547 203.096,418.276 201.97,417.753 C182.374,408.7 163.485,398.188 145.462,386.308 C142.823,384.666 141.285,381.72 141.447,378.616 C141.609,375.512 143.447,372.742 146.243,371.385 C149.039,370.028 152.352,370.299 154.891,372.092 C171.091,382.765 188.024,392.283 205.562,400.576 C390.42,312.478 399.269,152.785 392.298,79.33 C381.738,80.562 371.117,81.189 360.486,81.207 C355.773,81.207 351.953,77.386 351.953,72.674 C351.953,67.961 355.774,64.141 360.486,64.141 C373.249,64.107 385.994,63.157 398.621,61.299 C400.896,60.97 403.207,61.572 405.031,62.97 C406.856,64.367 408.039,66.442 408.315,68.723 C417.113,141.683 415.295,321.736 209.173,417.736 C208.044,418.27 206.811,418.546 205.563,418.547 Z" id="Shape"></path>
                <path d="M89.441,336.533 C87.064,336.535 84.794,335.545 83.178,333.802 C44.785,292.215 18.712,240.771 7.871,185.22 C0.197,146.903 -1.444,107.623 3.007,68.8 C3.269,66.509 4.448,64.422 6.274,63.014 C8.1,61.606 10.418,60.997 12.701,61.325 C25.267,63.166 37.949,64.107 50.649,64.141 C106.563,65.379 160.47,43.289 199.436,3.17 C202.849,-0.158 208.293,-0.158 211.707,3.17 C234.33,26.734 262.493,44.26 293.627,54.148 C296.583,55.033 298.831,57.444 299.506,60.455 C300.181,63.466 299.179,66.606 296.884,68.669 C294.589,70.732 291.36,71.395 288.438,70.404 C257.395,60.564 229.036,43.704 205.562,21.133 C163.869,60.796 108.198,82.388 50.665,81.208 C40.114,81.189 29.573,80.571 19.092,79.356 C15.992,113.591 17.849,148.094 24.605,181.799 C34.829,234.286 59.445,282.896 95.705,322.198 C98.013,324.687 98.627,328.307 97.268,331.417 C95.908,334.527 92.835,336.536 89.441,336.533 Z" id="Shape"></path>
            </g>
        </g>
    </g>
</svg>